# AST/ASF file generated using VICON BodyLanguage
# -----------------------------------------------
:version 1.10
:name VICON
:units
  mass 1.0
  length 0.45
  angle deg
:documentation
   .ast/.asf automatically generated from VICON data using
   VICON BodyBuilder and BodyLanguage model FoxedUp or BRILLIANT.MOD
:root
   order TX TY TZ RX RY RZ
   axis XYZ
   position 0 0 0  
   orientation 0 0 0 
:bonedata
  begin
     id 1 
     name lhipjoint
     direction 0.611804 -0.747784 0.257906 
     length 2.29243 
     axis 0 0 0  XYZ
  end
  begin
     id 2 
     name lfemur
     direction 0.34202 -0.939693 0  
     length 7.31159  
     axis 0 0 20  XYZ
    dof rx ry rz
    limits (-160.0 20.0)
           (-70.0 70.0)
           (-60.0 70.0)
  end
  begin
     id 3 
     name ltibia
     direction 0.34202 -0.939693 0   
     length 7.33391   
     axis 0 0 20   XYZ
    dof rx
    limits (-10.0 170.0)
  end
  begin
     id 4 
     name lfoot
     direction 0.122263 -0.335914 0.933924   
     length 1.76083   
     axis -90 7.62852e-016 20   XYZ
    dof rx rz
    limits (-45.0 90.0)
           (-70.0 20.0)
  end
  begin
     id 5 
     name ltoes
     direction 1.53533e-011 -4.2177e-011 1   
     length 0.879206   
     axis -90 7.62852e-016 20   XYZ
    dof rx
    limits (-90.0 20.0)
  end
  begin
     id 6 
     name rhipjoint
     direction -0.646469 -0.721248 0.248754   
     length 2.37677  
     axis 0 0 0  XYZ 
  end
  begin
     id 7 
     name rfemur
     direction -0.34202 -0.939693 0   
     length 7.18623   
     axis 0 0 -20   XYZ
    dof rx ry rz
    limits (-160.0 20.0)
           (-70.0 70.0)
           (-70.0 60.0)
  end
  begin
     id 8 
     name rtibia
     direction -0.34202 -0.939693 0   
     length 7.36567   
     axis 0 0 -20   XYZ
    dof rx
    limits (-10.0 170.0)
 end
 begin
     id 9 
     name rfoot
     direction -0.126681 -0.348054 0.928876   
     length 1.71902  
     axis -90 -7.62852e-016 -20   XYZ
    dof rx rz
    limits (-45.0 90.0)
           (-20.0 70.0)
  end
  begin
     id 10 
     name rtoes
     direction -1.53551e-011 -4.21898e-011 1   
     length 0.857792   
     axis -90 -7.62852e-016 -20   XYZ
    dof rx
    limits (-90.0 20.0)
  end
  begin
     id 11 
     name lowerback
     direction 0.0106509 0.999778 0.0181844   
     length 2.07668   
     axis 0 0 0   XYZ
    dof rx ry rz
    limits (-20.0 45.0)
           (-30.0 30.0)
           (-30.0 30.0)
  end
  begin
     id 12 
     name upperback
     direction -0.00456018 0.999989 -0.000590935   
     length 2.08011   
     axis 0 0 0   XYZ
    dof rx ry rz
    limits (-20.0 45.0)
           (-30.0 30.0)
           (-30.0 30.0)
  end
  begin
     id 13 
     name thorax
     direction -0.00910382 0.999916 -0.00923765   
     length 2.07397   
     axis 0 0 0   XYZ
    dof rx ry rz
    limits (-20.0 45.0)
           (-30.0 30.0)
           (-30.0 30.0)
  end
  begin
     id 14 
     name lowerneck
     direction 0.00171967 0.99778 0.0665733   
     length 1.67556   
     axis 0 0 0   XYZ
    dof rx ry rz
    limits (-20.0 45.0)
           (-30.0 30.0)
           (-30.0 30.0)
  end
  begin
     id 15 
     name upperneck
     direction -0.0143166 0.991302 -0.130828   
     length 1.68462   
     axis 0 0 0   XYZ
    dof rx ry rz
    limits (-20.0 45.0)
           (-30.0 30.0)
           (-30.0 30.0)
  end
  begin
     id 16
     name head
     direction -0.00606378 0.998665 -0.0512995  
     length 1.69269  
     axis 0 0 0   XYZ
    dof rx ry rz
    limits (-20.0 45.0)
           (-30.0 30.0)
           (-30.0 30.0)
  end
  begin
     id 17 
     name lclavicle
     direction 0.9638 0.179341 0.197297  
     length 4.12888  
     axis 0 0 0   XYZ
    dof ry rz
    limits (-20.0 10.0)
           (0.0 20.0)
  end
  begin
     id 18 
     name lhumerus
     direction 1 -4.48972e-011 -2.47351e-027   
     length 5.01834   
     axis -180 -30 -90   XYZ
    dof rx ry rz
    limits (-60.0 90.0)
           (-90.0 90.0)
           (-90.0 90.0)
  end
  begin
     id 19
     name lradius
     direction 1 -4.48965e-011 1.51591e-026   
     length 3.4869   
     axis -180 -30 -90   XYZ
    dof rx
    limits (-10.0 170.0)
  end
  begin
     id 20
     name lwrist
     direction 1 -4.48957e-011 2.70032e-026   
     length 1.74345   
     axis -1.81515e-014 90 90   XYZ
    dof ry
    limits (-180.0 0.0)
 end
  begin
     id 21 
     name lhand
     direction 1 -4.48951e-011 5.40064e-026   
     length 0.76799   
     axis -3.44607e-014 90 90   XYZ
    dof rx rz
    limits (-90.0 90.0)
           (-45.0 45.0)
  end
  begin
     id 22 
     name lfingers
     direction 1 -4.48971e-011 1.08013e-025   
     length 0.619174   
     axis -6.89214e-014 90 90   XYZ
    dof rx
    limits (0.0 90.0)
  end
  begin
     id 23
     name lthumb
     direction 0.707107 -6.34931e-011 0.707107   
     length 0.889013   
     axis -90 45 2.85299e-015   XYZ
    dof rx rz
    limits (-45.0 45.0)
           (-45.0 45.0)
  end
  begin
     id 24 
     name rclavicle
     direction -0.961409 0.252588 0.109054   
     length 4.04305  
     axis 0 0 0   XYZ 
    dof ry rz
    limits (-10.0 20.0)
           (-20.0 0.0)
  end
  begin
     id 25 
     name rhumerus
     direction -1 -4.4897e-011 1.33872e-017  
     length 4.70164   
     axis -180 30 90   XYZ
    dof rx ry rz
    limits (-90.0 60.0)
           (-90.0 90.0)
           (-90.0 90.0)
  end
  begin
     id 26 
     name rradius
     direction -1 -4.48954e-011 1.83844e-026   
     length 3.49911   
     axis -180 30 90   XYZ
    dof rx
    limits (-10.0 170.0)
  end
  begin
     id 27 
     name rwrist
     direction -1 -4.49008e-011 2.70032e-026   
     length 1.74955   
     axis -1.81515e-014 -90 -90   XYZ
    dof ry
    limits (-180.0 0.0)
  end
  begin
     id 28
     name rhand
     direction -1 -4.48916e-011 5.40064e-026   
     length 0.739335   
     axis -3.44607e-014 -90 -90   XYZ
    dof rx rz
    limits (-90.0 90.0)
           (-45.0 45.0)
  end
  begin
     id 29
     name rfingers
     direction -1 -4.48987e-011 1.08013e-025   
     length 0.596071   
     axis -6.89214e-014 -90 -90   XYZ
    dof rx
    limits (0.0 90.0)
  end
  begin
     id 30
     name rthumb
     direction -0.707107 -6.34935e-011 0.707107   
     length 0.855843   
     axis -90 -45 -2.85299e-015   XYZ
    dof rx rz
    limits (-45.0 45.0)
           (-45.0 45.0)
  end
:hierarchy
  begin
    root lhipjoint rhipjoint lowerback
    lhipjoint lfemur
    lfemur ltibia
    ltibia lfoot
    lfoot ltoes
    rhipjoint rfemur
    rfemur rtibia
    rtibia rfoot
    rfoot rtoes
    lowerback upperback
    upperback thorax
    thorax lowerneck lclavicle rclavicle
    lowerneck upperneck
    upperneck head
    lclavicle lhumerus
    lhumerus lradius
    lradius lwrist
    lwrist lhand lthumb
    lhand lfingers
    rclavicle rhumerus
    rhumerus rradius
    rradius rwrist
    rwrist rhand rthumb
    rhand rfingers
  end

#!OML:ASF I:\salsa\salsa 7_09\Patient 1\Session 1\dancermale.ASF
:FULLY-SPECIFIED
:DEGREES
469
root -0.0500069 16.9429 -1.33192 -555.973 100.331 -561.514
lowerback -1.75012 1.65658 7.66104
upperback -1.56023 2.13656 -0.311035
thorax -0.34356 1.01725 -4.58196
lowerneck -4.71452 -1.03178 -0.272103
upperneck 8.60626 -1.31372 -0.0494297
head 3.61778 -0.642522 -0.0276206
rclavicle 6.12816e-015 3.27995e-015
rhumerus -3.0259 0.726503 -94.3639
rradius 80.5427
rwrist 7.86428
rhand -30.8418 -11.3957
rfingers 7.12502
rthumb -4.13038 -41.3354
lclavicle 6.12816e-015 3.27995e-015
lhumerus -17.1865 -19.8941 101.136
lradius 84.2681
lwrist 35.3472
lhand -25.1636 55.5544
lfingers 7.12502
lthumb 1.35354 85.5298
rfemur -26.4268 -0.153237 22.697
rtibia 33.926
rfoot -16.2659 0.208763
rtoes -14.3047
lfemur -36.9529 -1.84623 -11.3538
ltibia 67.5324
lfoot -9.55878 -10.8334
ltoes -2.97872
470
root -0.0585615 16.8992 -1.38324 -553.911 100.702 -559.412
lowerback -1.80924 1.69069 7.75316
upperback -1.46312 2.1704 -0.331883
thorax -0.201154 1.04128 -4.6508
lowerneck -4.98289 -1.02104 -0.357297
upperneck 8.60636 -1.30102 0.0286429
head 3.67162 -0.636736 0.011893
rclavicle -1.34708e-014 -4.57205e-015
rhumerus -1.9329 0.547254 -95.2383
rradius 79.0269
rwrist 8.28212
rhand -30.4745 -11.453
rfingers 7.12502
rthumb -3.77573 -41.3993
lclavicle -1.34708e-014 -4.57205e-015
lhumerus -15.5082 -19.3861 99.7613
lradius 84.2194
lwrist 34.0311
lhand -25.0586 55.4295
lfingers 7.12502
lthumb 1.45493 85.4043
rfemur -27.0524 -0.529864 22.2941
rtibia 34.9182
rfoot -16.9388 0.853163
rtoes -15.4763
lfemur -37.3973 -2.83574 -10.177
ltibia 68.1318
lfoot -10.4282 -8.99726
ltoes -4.10237
471
root -0.0649168 16.8575 -1.44174 -552.258 101.19 -557.754
lowerback -1.76334 1.78919 7.97714
upperback -1.47297 2.30345 -0.348649
thorax -0.21031 1.10571 -4.79206
lowerneck -4.73545 -0.980499 0.0110974
upperneck 8.0866 -1.24256 -0.436812
head 3.43558 -0.617599 -0.198852
rclavicle -4.87426e-014 -7.50412e-015
rhumerus -0.982364 0.535889 -95.8028
rradius 77.627
rwrist 8.6868
rhand -30.0962 -11.5772
rfingers 7.12502
rthumb -3.41036 -41.5297
lclavicle -4.87426e-014 -7.50412e-015
lhumerus -13.7956 -19.0811 98.3375
lradius 83.842
lwrist 31.596
lhand -24.5903 54.4215
lfingers 7.12502
lthumb 1.90726 84.3927
rfemur -27.6214 -0.679191 21.9626
rtibia 35.6868
rfoot -17.3941 1.45504
rtoes -16.8293
lfemur -37.5899 -3.78229 -8.73606
ltibia 68.3224
lfoot -10.9664 -7.07205
ltoes -4.65103
472
root -0.0683138 16.8193 -1.50494 -550.255 101.802 -555.664
lowerback -1.54624 1.92079 8.07213
upperback -1.52151 2.49957 -0.374694
thorax -0.350004 1.1959 -4.87583
lowerneck -4.65474 -0.94588 -0.00304898
upperneck 7.99031 -1.1974 -0.420945
head 3.38684 -0.595266 -0.188205
rclavicle 2.54877e-015 1.33838e-014
rhumerus -0.170011 0.700073 -96.1704
rradius 76.2883
rwrist 9.16912
rhand -29.8539 -11.6428
rfingers 7.12502
rthumb -3.17633 -41.5989
lclavicle 2.54877e-015 1.33838e-014
lhumerus -12.0745 -18.8627 96.8563
lradius 83.5358
lwrist 29.4827
lhand -23.4555 53.4244
lfingers 7.12502
lthumb 3.00318 83.383
rfemur -28.1533 -0.376813 21.4989
rtibia 36.4773
rfoot -17.7763 1.79582
rtoes -17.9568
lfemur -37.3943 -4.68267 -7.28722
ltibia 68.0426
lfoot -11.2103 -5.14173
ltoes -4.78847
473
root -0.0691501 16.788 -1.56703 -548.163 102.452 -553.534
lowerback -1.41882 2.08147 7.97387
upperback -1.52826 2.72587 -0.386183
thorax -0.399502 1.30734 -4.83179
lowerneck -4.7546 -0.955277 0.114233
upperneck 7.91847 -1.21248 -0.52699
head 3.37975 -0.604249 -0.244294
rclavicle -1.27346e-014 1.60022e-014
rhumerus 0.682839 0.940807 -96.3709
rradius 75.0308
rwrist 9.61842
rhand -29.6162 -11.554
rfingers 7.12502
rthumb -2.94686 -41.5133
lclavicle -1.27346e-014 1.60022e-014
lhumerus -10.1783 -18.842 95.3206
lradius 83.3892
lwrist 28.4008
lhand -23.5875 52.6808
lfingers 7.12502
lthumb 2.87577 82.6412
rfemur -28.8346 0.124135 20.9924
rtibia 37.4705
rfoot -18.2712 1.9437
rtoes -19.4777
lfemur -36.9797 -5.8468 -5.59855
ltibia 67.2931
lfoot -11.2689 -3.80082
ltoes 1.10773
474
root -0.0670691 16.762 -1.6312 -545.7 103.081 -551.032
lowerback -1.32181 2.26988 7.66444
upperback -1.51226 2.98563 -0.449463
thorax -0.411297 1.43886 -4.72109
lowerneck -4.99611 -1.01129 0.331396
upperneck 7.91772 -1.29733 -0.650205
head 3.42365 -0.645739 -0.328093
rclavicle 2.21521e-014 1.44119e-014
rhumerus 1.5105 1.11659 -96.4613
rradius 73.9512
rwrist 9.93877
rhand -29.4301 -11.365
rfingers 7.12502
rthumb -2.7671 -41.3268
lclavicle 2.21521e-014 1.44119e-014
lhumerus -8.10733 -18.914 93.6996
lradius 83.1102
lwrist 27.3186
lhand -23.3143 51.5307
lfingers 7.12502
lthumb 3.13962 81.4874
rfemur -29.522 0.592128 20.3215
rtibia 38.4734
rfoot -18.7429 2.0766
rtoes -21.0139
lfemur -36.385 -6.99467 -4.09913
ltibia 66.0039
lfoot -11.5947 -2.01999
ltoes 4.26045
475
root -0.0614611 16.738 -1.7013 -543.379 103.637 -548.672
lowerback -1.19453 2.40838 7.36072
upperback -1.50641 3.18067 -0.574955
thorax -0.457729 1.53615 -4.682
lowerneck -5.30443 -1.02496 0.567232
upperneck 8.01376 -1.33749 -0.65645
head 3.51515 -0.659441 -0.376458
rclavicle 1.73176e-014 1.0635e-014
rhumerus 2.21842 1.30766 -96.571
rradius 73.0732
rwrist 10.1944
rhand -29.4918 -11.2051
rfingers 7.12502
rthumb -2.82662 -41.1661
lclavicle 1.73176e-014 1.0635e-014
lhumerus -6.05496 -19.0262 91.9338
lradius 82.8595
lwrist 25.7047
lhand -22.478 50.315
lfingers 7.12502
lthumb 3.94719 80.2582
rfemur -30.1055 1.08887 19.5605
rtibia 39.2769
rfoot -18.9955 2.11256
rtoes -21.472
lfemur -35.7036 -8.14317 -2.67344
ltibia 64.3265
lfoot -11.9875 -0.263825
ltoes 6.23954
476
root -0.0394665 16.7168 -1.77946 -541.539 104.279 -546.868
lowerback -1.20047 2.58999 7.23621
upperback -1.49651 3.42126 -0.690072
thorax -0.411364 1.65882 -4.72517
lowerneck -5.61628 -1.09573 0.827568
upperneck 7.90482 -1.44556 -0.841433
head 3.53414 -0.714781 -0.490012
rclavicle 2.44474e-014 5.96354e-015
rhumerus 2.80832 1.43332 -96.6327
rradius 72.3972
rwrist 10.4891
rhand -29.5735 -11.2273
rfingers 7.12502
rthumb -2.90554 -41.1872
lclavicle 2.44474e-014 5.96354e-015
lhumerus -4.06519 -19.4393 90.1288
lradius 82.8013
lwrist 24.5697
lhand -22.3634 49.7572
lfingers 7.12502
lthumb 4.05787 79.6983
rfemur -30.5781 1.69467 18.8489
rtibia 39.8502
rfoot -19.1472 2.22473
rtoes -21.325
lfemur -34.799 -9.14481 -1.23781
ltibia 62.1739
lfoot -12.3873 1.38684
ltoes 7.5886
477
root -0.0110813 16.7001 -1.86655 -539.848 104.862 -545.227
lowerback -1.17701 2.80005 7.08483
upperback -1.5271 3.70486 -0.730984
thorax -0.424202 1.80045 -4.67761
lowerneck -6.04343 -1.22482 0.696222
upperneck 7.97587 -1.60157 -0.949948
head 3.64122 -0.802025 -0.515147
rclavicle -1.90088e-014 4.17448e-015
rhumerus 3.27926 1.40389 -96.504
rradius 71.8748
rwrist 10.7277
rhand -29.4088 -11.4298
rfingers 7.12502
rthumb -2.74655 -41.3918
lclavicle -1.90088e-014 4.17448e-015
lhumerus -2.11848 -20.041 88.5129
lradius 82.7644
lwrist 24.1018
lhand -22.4648 49.3445
lfingers 7.12502
lthumb 3.95995 79.2874
rfemur -31.0539 2.20264 18.0812
rtibia 40.4361
rfoot -19.3593 2.39134
rtoes -21.5185
lfemur -33.7161 -10.1428 0.103324
ltibia 59.5923
lfoot -12.7712 2.99101
ltoes 9.24898
478
root 0.022224 16.6843 -1.96213 -538.488 105.414 -543.932
lowerback -1.21348 3.01726 6.94681
upperback -1.56859 3.99426 -0.716428
thorax -0.418161 1.94567 -4.57679
lowerneck -6.44535 -1.36795 0.413342
upperneck 8.27947 -1.77908 -0.80076
head 3.82944 -0.892055 -0.432054
rclavicle -9.63484e-015 7.95139e-016
rhumerus 3.64232 1.27202 -96.3026
rradius 71.4905
rwrist 10.9968
rhand -29.2145 -11.605
rfingers 7.12502
rthumb -2.55891 -41.5694
lclavicle -9.63484e-015 7.95139e-016
lhumerus -0.240293 -20.5536 87.0615
lradius 82.6369
lwrist 23.4129
lhand -22.0193 48.8327
lfingers 7.12502
lthumb 4.39014 78.7672
rfemur -31.546 2.668 17.3275
rtibia 41.0047
rfoot -19.5612 2.47436
rtoes -22.0474
lfemur -32.4687 -11.064 1.39235
ltibia 56.6654
lfoot -13.1655 4.42924
ltoes 11.0601
479
root 0.0600057 16.6687 -2.06308 -537.517 105.934 -543.091
lowerback -1.3259 3.19968 6.88832
upperback -1.65873 4.23342 -0.715532
thorax -0.421527 2.06382 -4.53278
lowerneck -6.42105 -1.44376 0.44527
upperneck 8.15122 -1.87974 -0.865894
head 3.77765 -0.944379 -0.463129
rclavicle -1.5002e-014 6.95746e-015
rhumerus 3.82177 1.0482 -96.2784
rradius 71.3108
rwrist 11.343
rhand -29.1079 -11.5469
rfingers 7.12502
rthumb -2.45594 -41.5125
lclavicle -1.5002e-014 6.95746e-015
lhumerus 1.55472 -21.0569 85.5119
lradius 82.3847
lwrist 22.6367
lhand -21.4941 48.4224
lfingers 7.12502
lthumb 4.89729 78.3458
rfemur -32.0345 3.2024 16.6507
rtibia 41.4577
rfoot -19.6751 2.4512
rtoes -22.4266
lfemur -31.1137 -11.7787 2.65672
ltibia 53.4039
lfoot -13.5868 5.42064
ltoes 12.8039
480
root 0.105792 16.6537 -2.17089 -536.179 106.41 -541.782
lowerback -1.37435 3.31895 6.65541
upperback -1.73921 4.39347 -0.761089
thorax -0.470011 2.14227 -4.44533
lowerneck -6.39202 -1.48247 0.547465
upperneck 8.03844 -1.93835 -0.921902
head 3.73014 -0.973195 -0.501306
rclavicle 3.18366e-014 -8.34896e-015
rhumerus 3.91228 0.789403 -96.4
rradius 71.2451
rwrist 11.6153
rhand -29.0739 -11.2736
rfingers 7.12502
rthumb -2.42306 -41.2396
lclavicle 3.18366e-014 -8.34896e-015
lhumerus 3.27143 -21.7506 83.8509
lradius 82.233
lwrist 22.5172
lhand -21.63 48.0154
lfingers 7.12502
lthumb 4.76606 77.9418
rfemur -32.3408 3.74042 15.7744
rtibia 41.8086
rfoot -19.7748 2.34913
rtoes -22.7623
lfemur -29.4955 -12.5726 3.57124
ltibia 49.9687
lfoot -13.9669 5.58359
ltoes 13.855
481
root 0.158269 16.6338 -2.28839 -534.64 106.812 -540.355
lowerback -1.5522 3.41186 6.31129
upperback -1.81986 4.51078 -0.766988
thorax -0.463682 2.20274 -4.24785
lowerneck -6.52519 -1.54151 0.576263
upperneck 8.11533 -2.01654 -0.969121
head 3.78207 -1.01319 -0.528462
rclavicle 2.47425e-014 9.54166e-015
rhumerus 4.00161 0.557531 -96.3939
rradius 71.2667
rwrist 11.6295
rhand -29.1408 -11.2138
rfingers 7.12502
rthumb -2.48767 -41.179
lclavicle 2.47425e-014 9.54166e-015
lhumerus 4.85175 -22.5792 82.3315
lradius 82.3129
lwrist 22.6588
lhand -22.0184 47.9093
lfingers 7.12502
lthumb 4.391 77.8438
rfemur -32.7354 4.18889 14.782
rtibia 42.1814
rfoot -19.8948 2.05431
rtoes -23.5595
lfemur -27.931 -13.4377 4.2607
ltibia 46.5904
lfoot -13.6777 4.86667
ltoes 15.4235
482
root 0.221548 16.6186 -2.4183 -533.728 107.243 -539.368
lowerback -1.55177 3.53401 6.16671
upperback -1.83216 4.67552 -0.726653
thorax -0.471179 2.28614 -4.12115
lowerneck -6.6234 -1.60638 0.711321
upperneck 8.14694 -2.09974 -1.16851
head 3.80844 -1.05924 -0.624311
rclavicle -4.80624e-014 -1.11319e-014
rhumerus 4.10766 0.220754 -96.1951
rradius 71.4067
rwrist 11.3472
rhand -29.1029 -11.242
rfingers 7.12502
rthumb -2.45105 -41.2076
lclavicle -4.80624e-014 -1.11319e-014
lhumerus 6.29377 -23.4291 81.0446
lradius 82.3825
lwrist 22.229
lhand -21.8476 48.0056
lfingers 7.12502
lthumb 4.55589 77.9366
rfemur -32.8432 4.67802 13.8632
rtibia 42.5109
rfoot -19.9918 1.75142
rtoes -23.9302
lfemur -26.0112 -14.3402 4.71822
ltibia 43.0576
lfoot -12.859 3.78309
ltoes 12.8768
483
root 0.299386 16.6 -2.56398 -532.07 107.651 -537.392
lowerback -1.44397 3.60554 5.81823
upperback -1.75708 4.77663 -0.794527
thorax -0.463242 2.34094 -3.99869
lowerneck -6.75821 -1.76473 0.384498
upperneck 8.03883 -2.28609 -1.11361
head 3.79923 -1.16033 -0.559033
rclavicle -1.70644e-014 2.18663e-014
rhumerus 4.26837 -0.188362 -95.9919
rradius 71.5618
rwrist 10.8564
rhand -28.7899 -10.9793
rfingers 7.12502
rthumb -2.14878 -40.9482
lclavicle -1.70644e-014 2.18663e-014
lhumerus 7.60509 -24.2282 79.8156
lradius 82.4194
lwrist 21.5753
lhand -21.6073 48.0417
lfingers 7.12502
lthumb 4.78795 77.9676
rfemur -32.667 5.02707 12.5217
rtibia 42.7402
rfoot -19.9709 1.70924
rtoes -23.3829
lfemur -23.7893 -15.5914 4.47699
ltibia 39.5154
lfoot -12.0034 0.827081
ltoes 13.3978
